<mxfile host="65bd71144e">
    <diagram id="TpMAqDgX_fmtfxLQCZk8" name="Page-1">
        <mxGraphModel dx="749" dy="563" grid="1" gridSize="10" guides="1" tooltips="1" connect="1" arrows="1" fold="1" page="1" pageScale="1" pageWidth="850" pageHeight="1100" math="0" shadow="0">
            <root>
                <mxCell id="0"/>
                <mxCell id="1" parent="0"/>
                <mxCell id="2" value="Entity relationship diagram" style="swimlane;whiteSpace=wrap;html=1;startSize=20;" parent="1" vertex="1">
                    <mxGeometry x="50" y="70" width="250" height="250" as="geometry"/>
                </mxCell>
                <mxCell id="3" style="edgeStyle=none;html=1;entryX=0.5;entryY=1;entryDx=0;entryDy=0;endArrow=none;endFill=0;" parent="2" source="6" target="7" edge="1">
                    <mxGeometry relative="1" as="geometry"/>
                </mxCell>
                <mxCell id="4" style="edgeStyle=none;html=1;entryX=0.5;entryY=1;entryDx=0;entryDy=0;endArrow=none;endFill=0;" parent="2" source="6" target="8" edge="1">
                    <mxGeometry relative="1" as="geometry"/>
                </mxCell>
                <mxCell id="33" style="edgeStyle=none;html=1;entryX=0.5;entryY=0;entryDx=0;entryDy=0;endArrow=none;endFill=0;" parent="2" source="6" target="19" edge="1">
                    <mxGeometry relative="1" as="geometry"/>
                </mxCell>
                <mxCell id="6" value="employee" style="html=1;dashed=0;whiteSpace=wrap;" parent="2" vertex="1">
                    <mxGeometry x="90" y="90" width="100" height="50" as="geometry"/>
                </mxCell>
                <mxCell id="7" value="&lt;u&gt;SSN&lt;/u&gt;" style="ellipse;whiteSpace=wrap;html=1;align=center;" parent="2" vertex="1">
                    <mxGeometry x="20" y="30" width="100" height="40" as="geometry"/>
                </mxCell>
                <mxCell id="8" value="name" style="ellipse;whiteSpace=wrap;html=1;align=center;" parent="2" vertex="1">
                    <mxGeometry x="140" y="30" width="100" height="40" as="geometry"/>
                </mxCell>
                <mxCell id="9" style="edgeStyle=none;html=1;entryX=0.5;entryY=0;entryDx=0;entryDy=0;" parent="2" edge="1">
                    <mxGeometry relative="1" as="geometry">
                        <mxPoint x="81.43046618229482" y="268.5695338177052" as="sourcePoint"/>
                    </mxGeometry>
                </mxCell>
                <mxCell id="10" style="edgeStyle=none;html=1;entryX=0.5;entryY=0;entryDx=0;entryDy=0;" parent="2" edge="1">
                    <mxGeometry relative="1" as="geometry">
                        <mxPoint x="128.67311721816714" y="266.38463841038117" as="sourcePoint"/>
                    </mxGeometry>
                </mxCell>
                <mxCell id="16" value="1" style="text;html=1;align=center;verticalAlign=middle;resizable=0;points=[];autosize=1;strokeColor=none;fillColor=none;" parent="2" vertex="1">
                    <mxGeometry x="140" y="140" width="30" height="30" as="geometry"/>
                </mxCell>
                <mxCell id="19" value="manage" style="shape=rhombus;perimeter=rhombusPerimeter;whiteSpace=wrap;html=1;align=center;" parent="2" vertex="1">
                    <mxGeometry x="80" y="170" width="120" height="60" as="geometry"/>
                </mxCell>
                <mxCell id="32" style="edgeStyle=orthogonalEdgeStyle;html=1;entryX=-0.015;entryY=0.39;entryDx=0;entryDy=0;entryPerimeter=0;endArrow=none;endFill=0;" parent="2" source="19" target="6" edge="1">
                    <mxGeometry relative="1" as="geometry">
                        <Array as="points">
                            <mxPoint x="140" y="240"/>
                            <mxPoint x="60" y="240"/>
                            <mxPoint x="60" y="110"/>
                        </Array>
                    </mxGeometry>
                </mxCell>
                <mxCell id="34" value="M" style="text;html=1;align=center;verticalAlign=middle;resizable=0;points=[];autosize=1;strokeColor=none;fillColor=none;" parent="2" vertex="1">
                    <mxGeometry x="60" y="110" width="30" height="30" as="geometry"/>
                </mxCell>
                <mxCell id="20" value="DB Mapping" style="swimlane;whiteSpace=wrap;html=1;startSize=20;" parent="1" vertex="1">
                    <mxGeometry x="310" y="70" width="350" height="220" as="geometry"/>
                </mxCell>
                <mxCell id="21" style="edgeStyle=none;html=1;entryX=1;entryY=0.5;entryDx=0;entryDy=0;" parent="20" edge="1">
                    <mxGeometry relative="1" as="geometry">
                        <mxPoint x="100" y="200" as="targetPoint"/>
                    </mxGeometry>
                </mxCell>
                <mxCell id="22" style="edgeStyle=none;html=1;entryX=0.5;entryY=0;entryDx=0;entryDy=0;" parent="20" edge="1">
                    <mxGeometry relative="1" as="geometry">
                        <mxPoint x="60" y="290" as="targetPoint"/>
                    </mxGeometry>
                </mxCell>
                <mxCell id="23" style="edgeStyle=none;html=1;entryX=0.5;entryY=0;entryDx=0;entryDy=0;" parent="20" edge="1">
                    <mxGeometry relative="1" as="geometry">
                        <mxPoint x="170" y="290" as="targetPoint"/>
                    </mxGeometry>
                </mxCell>
                <mxCell id="24" style="edgeStyle=none;html=1;entryX=0.764;entryY=0.12;entryDx=0;entryDy=0;entryPerimeter=0;" parent="20" edge="1">
                    <mxGeometry relative="1" as="geometry">
                        <mxPoint x="126.40000000000009" y="234.79999999999995" as="targetPoint"/>
                    </mxGeometry>
                </mxCell>
                <mxCell id="25" value="Mapping" style="swimlane;whiteSpace=wrap;html=1;" parent="20" vertex="1">
                    <mxGeometry x="10" y="30" width="330" height="110" as="geometry"/>
                </mxCell>
                <mxCell id="26" value="employee table" style="swimlane;whiteSpace=wrap;html=1;" parent="25" vertex="1">
                    <mxGeometry x="10" y="30" width="300" height="60" as="geometry"/>
                </mxCell>
                <mxCell id="28" value="SSN" style="rounded=0;whiteSpace=wrap;html=1;fillColor=#6a00ff;fontColor=#ffffff;strokeColor=#3700CC;fontStyle=4" parent="26" vertex="1">
                    <mxGeometry y="25" width="100" height="30" as="geometry"/>
                </mxCell>
                <mxCell id="29" value="name" style="rounded=0;whiteSpace=wrap;html=1;fillColor=#6a00ff;fontColor=#ffffff;strokeColor=#3700CC;" parent="26" vertex="1">
                    <mxGeometry x="100" y="25" width="100" height="30" as="geometry"/>
                </mxCell>
                <mxCell id="36" style="edgeStyle=orthogonalEdgeStyle;html=1;entryX=0.5;entryY=1;entryDx=0;entryDy=0;" parent="26" source="35" target="28" edge="1">
                    <mxGeometry relative="1" as="geometry">
                        <Array as="points">
                            <mxPoint x="250" y="70"/>
                            <mxPoint x="50" y="70"/>
                        </Array>
                    </mxGeometry>
                </mxCell>
                <mxCell id="35" value="MSSN" style="rounded=0;whiteSpace=wrap;html=1;fillColor=#6a00ff;fontColor=#ffffff;strokeColor=#3700CC;fontStyle=0" parent="26" vertex="1">
                    <mxGeometry x="200" y="25" width="100" height="30" as="geometry"/>
                </mxCell>
                <mxCell id="37" style="edgeStyle=none;html=1;exitX=1;exitY=0.75;exitDx=0;exitDy=0;entryX=0;entryY=0.75;entryDx=0;entryDy=0;dashed=1;endArrow=none;endFill=0;" edge="1" parent="26" source="35" target="35">
                    <mxGeometry relative="1" as="geometry"/>
                </mxCell>
                <mxCell id="31" value="constraints file" style="swimlane;fontStyle=0;childLayout=stackLayout;horizontal=1;startSize=30;horizontalStack=0;resizeParent=1;resizeParentMax=0;resizeLast=0;collapsible=1;marginBottom=0;whiteSpace=wrap;html=1;" parent="20" vertex="1">
                    <mxGeometry x="10" y="150" width="330" height="60" as="geometry"/>
                </mxCell>
            </root>
        </mxGraphModel>
    </diagram>
</mxfile>